<svg width="1761" height="250" viewBox="0 0 1761 250" fill="none" xmlns="http://www.w3.org/2000/svg">
<path d="M1727.9 72.1997C1739.23 72.1997 1747.5 75.0664 1752.7 80.7997C1757.9 86.533 1760.5 95.0664 1760.5 106.4C1760.5 117.733 1758.5 126.266 1754.5 132C1750.5 137.6 1744.63 142.733 1736.9 147.4L1734.9 148.6V160.8H1708.7V141.8C1708.7 137.533 1709.36 134.2 1710.7 131.8C1712.16 129.266 1714.56 127.2 1717.9 125.6C1721.23 123.866 1723.63 122.6 1725.1 121.8C1726.56 121 1727.96 119.733 1729.3 118C1730.76 116.133 1731.5 113.8 1731.5 111C1731.5 108.066 1730.76 105.866 1729.3 104.4C1727.83 102.8 1725.43 102 1722.1 102C1718.76 102 1711.23 103.533 1699.5 106.6V76.3997C1710.7 73.5997 1720.16 72.1997 1727.9 72.1997ZM1705.1 188.2C1705.1 177.666 1710.83 172.4 1722.3 172.4C1733.76 172.4 1739.5 177.666 1739.5 188.2C1739.5 193.266 1738.16 197.066 1735.5 199.6C1732.96 202 1728.76 203.2 1722.9 203.2C1711.03 203.2 1705.1 198.2 1705.1 188.2Z" fill="white"/>
<path d="M1683.84 201H1616.64V76.7997H1685.84L1683.84 107.4H1650.84V126H1679.44V152.4H1650.84V173H1685.84L1683.84 201Z" fill="white"/>
<path d="M1602.81 116.2C1602.81 123.666 1601.67 129.866 1599.41 134.8C1597.14 139.733 1593.61 144.2 1588.81 148.2L1605.41 201H1568.41L1556.01 156.2H1551.41V201H1517.81V76.7997H1564.21C1577.54 76.7997 1587.27 79.933 1593.41 86.1997C1599.67 92.4664 1602.81 102.466 1602.81 116.2ZM1556.61 135.2C1560.07 135.2 1562.54 134.2 1564.01 132.2C1565.47 130.2 1566.21 126.6 1566.21 121.4C1566.21 116.066 1565.47 112.4 1564.01 110.4C1562.54 108.266 1560.14 107.2 1556.81 107.2H1551.41V135.2H1556.61Z" fill="white"/>
<path d="M1507.98 107H1484.78V201H1450.58V107H1425.98L1427.98 76.7997H1509.98L1507.98 107Z" fill="white"/>
<path d="M1344.82 114.2C1344.82 102.333 1348.29 92.7997 1355.22 85.5997C1362.16 78.3997 1371.62 74.7997 1383.62 74.7997C1395.76 74.7997 1408.16 75.9997 1420.82 78.3997L1416.82 110.4C1403.62 107.333 1394.56 105.8 1389.62 105.8C1383.36 105.8 1380.22 108.333 1380.22 113.4C1380.22 115.4 1381.69 117.333 1384.62 119.2C1387.69 121.066 1391.36 123.066 1395.62 125.2C1399.89 127.2 1404.16 129.666 1408.43 132.6C1412.69 135.4 1416.29 139.466 1419.22 144.8C1422.29 150.133 1423.82 156.266 1423.82 163.2C1423.82 175.866 1420.42 185.666 1413.62 192.6C1406.83 199.533 1397.16 203 1384.62 203C1372.23 203 1360.09 201.066 1348.22 197.2L1350.43 167.4C1364.69 171.533 1374.62 173.6 1380.22 173.6C1385.82 173.6 1388.62 171.133 1388.62 166.2C1388.62 163.666 1387.09 161.333 1384.03 159.2C1381.09 157.066 1377.49 154.933 1373.22 152.8C1368.96 150.666 1364.62 148.2 1360.22 145.4C1355.96 142.6 1352.29 138.533 1349.22 133.2C1346.29 127.866 1344.82 121.533 1344.82 114.2Z" fill="white"/>
<path d="M1336.77 201H1269.57V76.7997H1338.77L1336.77 107.4H1303.77V126H1332.37V152.4H1303.77V173H1338.77L1336.77 201Z" fill="white"/>
<path d="M1253.24 201H1221.84V136.2H1220.04L1208.24 201H1176.04L1164.84 136.2H1162.84V201H1131.84L1136.04 76.7997H1181.04L1192.24 144H1193.84L1204.64 76.7997H1249.04L1253.24 201Z" fill="white"/>
<path d="M744.703 201H711.303L707.503 181.4H683.903L680.103 201H648.303L671.103 76.7997H721.903L744.703 201ZM703.703 158L696.703 113.6H695.303L688.303 158H703.703Z" fill="white"/>
<path d="M626.592 113.8C613.792 109.933 604.392 108 598.392 108C592.526 108 588.459 110.6 586.192 115.8C584.059 121 582.992 129.266 582.992 140.6C582.992 151.8 583.992 160 585.992 165.2C588.126 170.266 592.392 172.8 598.792 172.8C600.659 172.8 604.259 172.266 609.592 171.2V156H600.592V132.4H638.792V201H615.192L611.992 194.6H611.192C608.926 196.466 607.126 197.866 605.792 198.8C602.059 201.6 596.792 203 589.992 203C562.126 203 548.192 181.933 548.192 139.8C548.192 118.733 551.859 102.666 559.192 91.5997C566.526 80.3997 578.859 74.7997 596.192 74.7997C610.059 74.7997 621.992 76.933 631.992 81.1997L626.592 113.8Z" fill="white"/>
<path d="M541.383 201H507.983L504.183 181.4H480.583L476.783 201H444.983L467.783 76.7997H518.583L541.383 201ZM500.383 158L493.383 113.6H491.983L484.983 158H500.383Z" fill="white"/>
<path d="M441.006 76.7997L420.006 201H367.206L344.806 76.7997H382.606L393.406 158.2H396.806L405.006 76.7997H441.006Z" fill="white"/>
<path d="M292.891 201H261.491V136.2H259.691L247.891 201H215.691L204.491 136.2H202.491V201H171.491L175.691 76.7997H220.691L231.891 144H233.491L244.291 76.7997H288.691L292.891 201Z" fill="white"/>
<path d="M159.031 201H91.8312V76.7997H161.031L159.031 107.4H126.031V126H154.631V152.4H126.031V173H161.031L159.031 201Z" fill="white"/>
<path d="M82 107H58.8V201H24.6V107H0L2 76.7997H84L82 107Z" fill="white"/>
<path d="M1007.65 115.346C1015.79 129.336 1016.22 146.797 1011.44 162.002C1017.74 150.499 1021.55 137.585 1023.1 124.567C1009.72 112.532 1000.72 93.9316 1004.74 75.7709C1014.56 82.588 1021 93.7767 1023.67 105.338C1023.05 94.3713 1021.09 83.0318 1016.79 72.9235C1000.5 62.7816 986.713 45.6593 986.018 25.8404C1003.9 33.6499 1016.15 50.7847 1020.76 69.4061C1026.45 83.4715 1028.83 98.7806 1028.73 113.813C1033.98 100.623 1043.6 88.0693 1057.18 82.8978C1055.02 100.305 1043.17 115.811 1027.99 124.244C1026.63 137.196 1022.75 149.946 1017.19 161.596C1027.4 150.763 1042.04 142.401 1057.31 143.598V143.757C1048.01 159.824 1030.52 170.716 1011.99 171.855C1011.58 171.893 1011.11 171.779 1010.94 172.269C1007.65 177.407 1003.64 182.118 999.539 186.565C1015.82 180.1 1034.6 181.993 1050.09 189.798C1033.14 198.39 1012.03 199.81 994.907 190.907C980.783 203.549 962.156 211.346 943.124 211.229V206.397C968.019 206.698 991.304 192.247 1005.25 172.098C1007.48 170.012 1005.3 168.375 1004.67 166.009C1003.22 162.262 1002.11 158.388 1001.31 154.448C998.736 141.178 1000.28 126.719 1007.24 114.948" fill="url(#paint0_linear_2_30)"/>
<path d="M878.674 115.329C870.526 129.319 870.095 146.781 874.882 161.985C868.576 150.482 864.772 137.568 863.215 124.55C876.598 112.515 885.604 93.9149 881.582 75.7541C871.76 82.5712 865.316 93.7599 862.646 105.321C863.269 94.3545 865.228 83.0151 869.53 72.9067C885.821 62.7649 899.606 45.6426 900.301 25.8237C882.419 33.6331 870.17 50.768 865.563 69.3893C859.871 83.4548 857.486 98.7639 857.591 113.797C852.334 100.611 842.714 88.0567 829.13 82.8853C831.297 100.292 843.145 115.798 858.323 124.232C859.687 137.183 863.562 149.934 869.12 161.583C858.909 150.75 844.266 142.388 829 143.586V143.745C838.299 159.812 855.795 170.703 874.321 171.842C874.732 171.88 875.204 171.767 875.368 172.257C878.661 177.395 882.674 182.106 886.771 186.553C870.492 180.087 851.711 181.98 836.219 189.785C853.171 198.378 874.28 199.797 891.404 190.895C905.528 203.537 924.154 211.334 943.187 211.216C943.187 209.604 943.187 207.996 943.187 206.384C918.291 206.686 895.007 192.235 881.063 172.085C878.833 170 881.013 168.363 881.641 165.997C883.089 162.249 884.202 158.376 885.005 154.435C887.575 141.165 886.035 126.706 879.067 114.936" fill="url(#paint1_linear_2_30)"/>
<path d="M968.065 78.9073L953.816 107.423L911.072 93.1653L939.567 64.6492L968.065 78.9073Z" fill="#805CD8"/>
<path d="M971.627 132.376L996.564 107.423L968.065 78.9073L953.816 107.423V121.681L971.627 132.376Z" fill="#5E35B1"/>
<path d="M939.567 135.94L953.816 150.198L971.677 132.326L953.816 121.681L939.567 135.94Z" fill="#805CD8"/>
<path d="M996.564 107.423L953.816 150.198V250L982.315 221.484L989.439 164.454L996.564 107.423Z" fill="#391E70"/>
<path d="M953.816 150.198L939.567 135.94L918.195 235.742L953.816 250V150.198Z" fill="#5E35B1"/>
<path d="M896.823 114.55L918.195 135.94L896.823 178.71V114.55Z" fill="#391E70"/>
<path d="M911.072 93.1653L953.816 107.423V121.681L939.567 135.94H918.195L896.823 114.55L911.072 93.1653Z" fill="#A08AE4"/>
<path d="M896.823 178.71L918.195 135.94H939.567L918.195 235.742L896.823 178.71Z" fill="#805CD8"/>
<path d="M968.597 25.6645C945.798 27.239 944.522 28.5162 942.948 51.3291C941.375 28.5162 940.098 27.239 917.299 25.6645C940.098 24.0901 941.375 22.8129 942.948 0C944.522 22.8129 945.798 24.0901 968.597 25.6645Z" fill="#14B8A6"/>
<defs>
<linearGradient id="paint0_linear_2_30" x1="943.172" y1="0" x2="943.172" y2="249.998" gradientUnits="userSpaceOnUse">
<stop stop-color="#5EEAD4"/>
<stop offset="1" stop-color="#042F2E"/>
</linearGradient>
<linearGradient id="paint1_linear_2_30" x1="943.155" y1="0.00564662" x2="943.155" y2="249.998" gradientUnits="userSpaceOnUse">
<stop stop-color="#5EEAD4"/>
<stop offset="1" stop-color="#042F2E"/>
</linearGradient>
</defs>
</svg>
