<svg width="360" height="620" viewBox="0 0 360 620" fill="none" xmlns="http://www.w3.org/2000/svg">
<g opacity="0.2">
<path d="M218.66 563.773C240.22 562.285 241.427 561.078 242.915 539.518C244.403 561.078 245.61 562.285 267.17 563.773C245.61 565.261 244.403 566.468 242.915 588.028C241.427 566.468 240.22 565.261 218.66 563.773Z" fill="white"/>
</g>
<g opacity="0.3">
<path d="M267.666 509.861C289.471 508.356 290.692 507.135 292.197 485.33C293.702 507.135 294.922 508.356 316.727 509.861C294.922 511.366 293.702 512.586 292.197 534.391C290.692 512.586 289.471 511.366 267.666 509.861Z" fill="white"/>
</g>
<g opacity="0.2">
<path d="M117.483 583.163C139.043 581.675 140.25 580.468 141.738 558.908C143.226 580.468 144.433 581.675 165.993 583.163C144.433 584.651 143.226 585.858 141.738 607.418C140.25 585.858 139.043 584.651 117.483 583.163Z" fill="white"/>
</g>
<g opacity="0.1">
<path d="M76.8502 474.095C98.4101 472.607 99.6169 471.4 101.105 449.84C102.593 471.4 103.8 472.607 125.36 474.095C103.8 475.583 102.593 476.79 101.105 498.35C99.6169 476.79 98.4101 475.583 76.8502 474.095Z" fill="white"/>
</g>
<g opacity="0.1">
<path d="M4.85096 570.331C26.4109 568.843 27.6176 567.636 29.1058 546.077C30.5941 567.636 31.8008 568.843 53.3607 570.331C31.8008 571.82 30.5941 573.026 29.1058 594.586C27.6176 573.026 26.4109 571.82 4.85096 570.331Z" fill="white"/>
</g>
<g opacity="0.2">
<path d="M155.978 415.64C177.538 414.152 178.745 412.945 180.233 391.385C181.721 412.945 182.928 414.152 204.488 415.64C182.928 417.128 181.721 418.335 180.233 439.895C178.745 418.335 177.538 417.128 155.978 415.64Z" fill="white"/>
</g>
<g opacity="0.1">
<path d="M179.503 305.146C201.062 303.658 202.269 302.451 203.757 280.892C205.246 302.451 206.452 303.658 228.012 305.146C206.452 306.635 205.246 307.841 203.757 329.401C202.269 307.841 201.062 306.635 179.503 305.146Z" fill="white"/>
</g>
<g opacity="0.2">
<path d="M289.996 176.831C311.556 175.343 312.763 174.136 314.251 152.576C315.739 174.136 316.946 175.343 338.506 176.831C316.946 178.319 315.739 179.526 314.251 201.086C312.763 179.526 311.556 178.319 289.996 176.831Z" fill="white"/>
</g>
<g opacity="0.05">
<path d="M227.977 201.068C249.537 199.58 250.744 198.373 252.232 176.814C253.72 198.373 254.927 199.58 276.487 201.068C254.927 202.557 253.72 203.763 252.232 225.323C250.744 203.763 249.537 202.557 227.977 201.068Z" fill="white"/>
</g>
<g opacity="0.1">
<path d="M302.828 82.0203C324.388 80.5321 325.594 79.3254 327.083 57.7655C328.571 79.3254 329.778 80.5321 351.338 82.0203C329.778 83.5086 328.571 84.7153 327.083 106.275C325.594 84.7153 324.388 83.5086 302.828 82.0203Z" fill="white"/>
</g>
<g opacity="0.3">
<path d="M306.639 445.034C328.199 443.529 329.406 442.309 330.894 420.504C332.382 442.309 333.589 443.529 355.149 445.034C333.589 446.539 332.382 447.76 330.894 469.565C329.406 447.76 328.199 446.539 306.639 445.034Z" fill="white"/>
</g>
<g opacity="0.2">
<path d="M208.737 457.272C230.297 455.783 231.504 454.577 232.992 433.017C234.481 454.577 235.687 455.783 257.247 457.272C235.687 458.76 234.481 459.967 232.992 481.527C231.504 459.967 230.297 458.76 208.737 457.272Z" fill="white"/>
</g>
<g opacity="0.2">
<path d="M267.004 374.585C288.809 373.096 290.03 371.89 291.535 350.33C293.04 371.89 294.261 373.096 316.065 374.585C294.261 376.073 293.04 377.28 291.535 398.84C290.03 377.28 288.809 376.073 267.004 374.585Z" fill="white"/>
</g>
<g opacity="0.3">
<path d="M306.639 590.894C328.199 589.406 329.406 588.199 330.894 566.639C332.382 588.199 333.589 589.406 355.149 590.894C333.589 592.382 332.382 593.589 330.894 615.149C329.406 593.589 328.199 592.382 306.639 590.894Z" fill="white"/>
</g>
<g opacity="0.2">
<path d="M306.639 309.097C328.199 307.608 329.406 306.402 330.894 284.842C332.382 306.402 333.589 307.608 355.149 309.097C333.589 310.585 332.382 311.792 330.894 333.351C329.406 311.792 328.199 310.585 306.639 309.097Z" fill="white"/>
</g>
<ellipse opacity="0.3" cx="283.816" cy="599.777" rx="3.56431" ry="3.56431" transform="rotate(180 283.816 599.777)" fill="white"/>
<ellipse opacity="0.3" cx="320.602" cy="543.061" rx="3.56431" ry="3.56431" transform="rotate(180 320.602 543.061)" fill="white"/>
<ellipse opacity="0.2" cx="234.603" cy="515.562" rx="3.56431" ry="3.56431" transform="rotate(180 234.603 515.562)" fill="white"/>
<ellipse opacity="0.1" cx="180.354" cy="225.427" rx="3.56431" ry="3.56431" transform="rotate(180 180.354 225.427)" fill="white"/>
<ellipse opacity="0.05" cx="286.571" cy="114.934" rx="3.56431" ry="3.56431" transform="rotate(180 286.571 114.934)" fill="white"/>
<ellipse opacity="0.05" cx="327.204" cy="23.6871" rx="3.56431" ry="3.56431" transform="rotate(180 327.204 23.6871)" fill="white"/>
<ellipse opacity="0.1" cx="312.234" cy="4.43978" rx="3.56431" ry="3.56431" transform="rotate(180 312.234 4.43978)" fill="white"/>
<ellipse opacity="0.2" cx="167.804" cy="520.57" rx="3.56431" ry="3.56431" transform="rotate(180 167.804 520.57)" fill="white"/>
<ellipse opacity="0.05" cx="13.5445" cy="515.562" rx="3.56431" ry="3.56431" transform="rotate(180 13.5445 515.562)" fill="white"/>
<ellipse opacity="0.1" cx="39.2076" cy="510.572" rx="3.56431" ry="3.56431" transform="rotate(180 39.2076 510.572)" fill="white"/>
<ellipse opacity="0.2" cx="160.394" cy="341.624" rx="3.56431" ry="3.56431" transform="rotate(180 160.394 341.624)" fill="white"/>
<ellipse opacity="0.05" cx="130.454" cy="353.743" rx="3.56431" ry="3.56431" transform="rotate(180 130.454 353.743)" fill="white"/>
<ellipse opacity="0.3" cx="183.695" cy="612.518" rx="3.56431" ry="3.56431" transform="rotate(180 183.695 612.518)" fill="white"/>
<ellipse opacity="0.3" cx="330.993" cy="367.103" rx="3.56431" ry="3.56431" transform="rotate(180 330.993 367.103)" fill="white"/>
<ellipse opacity="0.2" cx="154.968" cy="506.679" rx="3.56431" ry="3.56431" transform="rotate(180 154.968 506.679)" fill="white"/>
<ellipse opacity="0.05" cx="281.486" cy="253.325" rx="3.56431" ry="3.56431" transform="rotate(180 281.486 253.325)" fill="white"/>
<ellipse opacity="0.2" cx="275.985" cy="330.721" rx="3.56431" ry="3.56431" transform="rotate(180 275.985 330.721)" fill="white"/>
<ellipse opacity="0.3" cx="263.323" cy="424.412" rx="3.56431" ry="3.56431" transform="rotate(180 263.323 424.412)" fill="white"/>
</svg>
