<svg width="360" height="620" viewBox="0 0 360 620" fill="none" xmlns="http://www.w3.org/2000/svg">
<g opacity="0.2">
<path d="M141.34 56.2271C119.78 57.7153 118.573 58.9221 117.085 80.482C115.597 58.9221 114.39 57.7153 92.83 56.2271C114.39 54.7388 115.597 53.5321 117.085 31.9722C118.573 53.5321 119.78 54.7388 141.34 56.2271Z" fill="white"/>
</g>
<g opacity="0.3">
<path d="M92.3338 110.139C70.5289 111.644 69.3084 112.865 67.8033 134.67C66.2981 112.865 65.0777 111.644 43.2728 110.139C65.0777 108.634 66.2981 107.414 67.8033 85.6088C69.3084 107.414 70.5289 108.634 92.3338 110.139Z" fill="white"/>
</g>
<g opacity="0.2">
<path d="M242.517 36.837C220.957 38.3252 219.75 39.532 218.262 61.0919C216.774 39.532 215.567 38.3252 194.007 36.837C215.567 35.3488 216.774 34.142 218.262 12.5821C219.75 34.142 220.957 35.3488 242.517 36.837Z" fill="white"/>
</g>
<g opacity="0.1">
<path d="M283.15 145.905C261.59 147.393 260.383 148.6 258.895 170.16C257.407 148.6 256.2 147.393 234.64 145.905C256.2 144.417 257.407 143.21 258.895 121.65C260.383 143.21 261.59 144.417 283.15 145.905Z" fill="white"/>
</g>
<g opacity="0.1">
<path d="M355.149 49.6685C333.589 51.1568 332.382 52.3635 330.894 73.9234C329.406 52.3635 328.199 51.1568 306.639 49.6685C328.199 48.1803 329.406 46.9736 330.894 25.4137C332.382 46.9736 333.589 48.1803 355.149 49.6685Z" fill="white"/>
</g>
<g opacity="0.2">
<path d="M204.022 204.36C182.462 205.848 181.255 207.055 179.767 228.615C178.279 207.055 177.072 205.848 155.512 204.36C177.072 202.872 178.279 201.665 179.767 180.105C181.255 201.665 182.462 202.872 204.022 204.36Z" fill="white"/>
</g>
<g opacity="0.1">
<path d="M180.497 314.854C158.938 316.342 157.731 317.549 156.243 339.108C154.754 317.549 153.548 316.342 131.988 314.854C153.548 313.365 154.754 312.159 156.243 290.599C157.731 312.159 158.938 313.365 180.497 314.854Z" fill="white"/>
</g>
<g opacity="0.2">
<path d="M70.0038 443.169C48.4439 444.657 47.2371 445.864 45.7489 467.424C44.2607 445.864 43.0539 444.657 21.494 443.169C43.0539 441.681 44.2607 440.474 45.7489 418.914C47.2371 440.474 48.4439 441.681 70.0038 443.169Z" fill="white"/>
</g>
<g opacity="0.05">
<path d="M132.023 418.932C110.463 420.42 109.256 421.627 107.768 443.186C106.28 421.627 105.073 420.42 83.5131 418.932C105.073 417.443 106.28 416.237 107.768 394.677C109.256 416.237 110.463 417.443 132.023 418.932Z" fill="white"/>
</g>
<g opacity="0.1">
<path d="M57.1722 537.98C35.6123 539.468 34.4056 540.675 32.9174 562.235C31.4291 540.675 30.2224 539.468 8.66248 537.98C30.2224 536.491 31.4291 535.285 32.9174 513.725C34.4056 535.285 35.6123 536.491 57.1722 537.98Z" fill="white"/>
</g>
<g opacity="0.3">
<path d="M53.3608 174.966C31.8009 176.471 30.5941 177.691 29.1059 199.496C27.6177 177.691 26.4109 176.471 4.85102 174.966C26.4109 173.461 27.6177 172.24 29.1059 150.435C30.5941 172.24 31.8009 173.461 53.3608 174.966Z" fill="white"/>
</g>
<g opacity="0.2">
<path d="M151.263 162.728C129.703 164.217 128.496 165.423 127.008 186.983C125.519 165.423 124.313 164.217 102.753 162.728C124.313 161.24 125.519 160.033 127.008 138.473C128.496 160.033 129.703 161.24 151.263 162.728Z" fill="white"/>
</g>
<g opacity="0.2">
<path d="M92.9956 245.415C71.1907 246.904 69.9702 248.11 68.4651 269.67C66.9599 248.11 65.7395 246.904 43.9346 245.415C65.7395 243.927 66.9599 242.72 68.4651 221.16C69.9702 242.72 71.1907 243.927 92.9956 245.415Z" fill="white"/>
</g>
<g opacity="0.3">
<path d="M53.3608 29.1059C31.8009 30.5941 30.5941 31.8008 29.1059 53.3607C27.6177 31.8008 26.4109 30.5941 4.85102 29.1059C26.4109 27.6176 27.6177 26.4109 29.1059 4.85098C30.5941 26.4109 31.8009 27.6176 53.3608 29.1059Z" fill="white"/>
</g>
<g opacity="0.2">
<path d="M53.3608 310.903C31.8009 312.392 30.5941 313.598 29.1059 335.158C27.6177 313.598 26.4109 312.392 4.85102 310.903C26.4109 309.415 27.6177 308.208 29.1059 286.649C30.5941 308.208 31.8009 309.415 53.3608 310.903Z" fill="white"/>
</g>
<circle opacity="0.3" cx="76.1841" cy="20.2233" r="3.56431" fill="white"/>
<circle opacity="0.3" cx="39.3976" cy="76.9391" r="3.56431" fill="white"/>
<circle opacity="0.2" cx="125.397" cy="104.438" r="3.56431" fill="white"/>
<circle opacity="0.1" cx="179.646" cy="394.573" r="3.56431" fill="white"/>
<circle opacity="0.05" cx="73.4291" cy="505.066" r="3.56431" fill="white"/>
<circle opacity="0.05" cx="32.7959" cy="596.313" r="3.56431" fill="white"/>
<circle opacity="0.1" cx="47.766" cy="615.56" r="3.56431" fill="white"/>
<circle opacity="0.2" cx="192.196" cy="99.4301" r="3.56431" fill="white"/>
<circle opacity="0.05" cx="346.456" cy="104.438" r="3.56431" fill="white"/>
<circle opacity="0.1" cx="320.792" cy="109.428" r="3.56431" fill="white"/>
<circle opacity="0.2" cx="199.606" cy="278.376" r="3.56431" fill="white"/>
<circle opacity="0.05" cx="229.546" cy="266.257" r="3.56431" fill="white"/>
<circle opacity="0.3" cx="176.305" cy="7.48198" r="3.56431" fill="white"/>
<circle opacity="0.3" cx="29.0076" cy="252.897" r="3.56431" fill="white"/>
<circle opacity="0.2" cx="205.032" cy="113.321" r="3.56431" fill="white"/>
<circle opacity="0.05" cx="78.5142" cy="366.675" r="3.56431" fill="white"/>
<circle opacity="0.2" cx="84.0149" cy="289.279" r="3.56431" fill="white"/>
<circle opacity="0.3" cx="96.6766" cy="195.588" r="3.56431" fill="white"/>
</svg>
