<svg width="720" height="103" viewBox="0 0 720 103" fill="none" xmlns="http://www.w3.org/2000/svg">
<path d="M706.667 29.528C711.302 29.528 714.683 30.7004 716.81 33.0451C718.937 35.3899 720 38.8799 720 43.5149C720 48.15 719.182 51.6399 717.546 53.9847C715.91 56.275 713.511 58.3744 710.348 60.2829L709.53 60.7737V65.7632H698.815V57.9927C698.815 56.2477 699.088 54.8845 699.633 53.9029C700.233 52.8668 701.214 52.0216 702.578 51.3673C703.941 50.6584 704.922 50.1403 705.522 49.8132C706.122 49.486 706.695 48.9679 707.24 48.259C707.84 47.4956 708.14 46.5414 708.14 45.3962C708.14 44.1966 707.84 43.2968 707.24 42.697C706.64 42.0426 705.659 41.7154 704.295 41.7154C702.932 41.7154 699.851 42.3425 695.052 43.5967V31.2457C699.633 30.1005 703.505 29.528 706.667 29.528ZM697.343 76.9691C697.343 72.6613 699.688 70.5073 704.377 70.5073C709.067 70.5073 711.412 72.6613 711.412 76.9691C711.412 79.0413 710.866 80.5954 709.776 81.6315C708.74 82.613 707.022 83.1038 704.622 83.1038C699.769 83.1038 697.343 81.0589 697.343 76.9691Z" fill="#7C3AED"/>
<path d="M688.648 82.204H661.165V31.4092H689.466L688.648 43.9239H675.152V51.5309H686.849V62.3278H675.152V70.7527H689.466L688.648 82.204Z" fill="#7C3AED"/>
<path d="M655.51 47.5229C655.51 50.5766 655.046 53.1122 654.119 55.1298C653.192 57.1475 651.747 58.9742 649.784 60.6101L656.573 82.204H641.441L636.37 63.8819H634.488V82.204H620.747V31.4092H639.723C645.176 31.4092 649.157 32.6907 651.665 35.2536C654.228 37.8165 655.51 41.9063 655.51 47.5229ZM636.615 55.2934C638.033 55.2934 639.042 54.8845 639.641 54.0665C640.241 53.2486 640.541 51.7762 640.541 49.6496C640.541 47.4684 640.241 45.9688 639.641 45.1508C639.042 44.2784 638.06 43.8421 636.697 43.8421H634.488V55.2934H636.615Z" fill="#7C3AED"/>
<path d="M616.726 43.7603H607.238V82.204H593.251V43.7603H583.19L584.008 31.4092H617.544L616.726 43.7603Z" fill="#7C3AED"/>
<path d="M550.001 46.7049C550.001 41.8518 551.419 37.9529 554.254 35.0082C557.09 32.0636 560.961 30.5913 565.869 30.5913C570.831 30.5913 575.903 31.0821 581.083 32.0636L579.447 45.1508C574.049 43.8966 570.341 43.2695 568.323 43.2695C565.76 43.2695 564.479 44.3056 564.479 46.3778C564.479 47.1957 565.078 47.9864 566.278 48.7498C567.532 49.5132 569.032 50.3312 570.777 51.2037C572.522 52.0216 574.267 53.0304 576.012 54.2301C577.757 55.3752 579.229 57.0384 580.429 59.2196C581.683 61.4008 582.31 63.9092 582.31 66.7448C582.31 71.9251 580.919 75.9331 578.138 78.7687C575.357 81.6042 571.404 83.022 566.278 83.022C561.207 83.022 556.245 82.2313 551.391 80.6499L552.291 68.4625C558.126 70.1529 562.188 70.9981 564.479 70.9981C566.769 70.9981 567.914 69.9893 567.914 67.9717C567.914 66.9356 567.287 65.9813 566.033 65.1089C564.833 64.2364 563.361 63.3639 561.616 62.4914C559.871 61.6189 558.099 60.6101 556.299 59.465C554.554 58.3199 553.055 56.6567 551.8 54.4755C550.601 52.2943 550.001 49.7041 550.001 46.7049Z" fill="#7C3AED"/>
<path d="M546.705 82.204H519.222V31.4092H547.523L546.705 43.9239H533.209V51.5309H544.905V62.3278H533.209V70.7527H547.523L546.705 82.204Z" fill="#7C3AED"/>
<path d="M512.546 82.204H499.704V55.7024H498.968L494.142 82.204H480.973L476.392 55.7024H475.574V82.204H462.896L464.614 31.4092H483.018L487.598 58.8924H488.253L492.67 31.4092H510.828L512.546 82.204Z" fill="#7C3AED"/>
<path d="M304.566 82.204H290.906L289.352 74.1881H279.7L278.146 82.204H265.14L274.465 31.4092H295.241L304.566 82.204ZM287.798 64.6181L284.935 46.4596H284.362L281.499 64.6181H287.798Z" fill="#7C3AED"/>
<path d="M256.261 46.5414C251.026 44.96 247.182 44.1693 244.728 44.1693C242.329 44.1693 240.665 45.2326 239.738 47.3593C238.866 49.486 238.43 52.8668 238.43 57.5019C238.43 62.0824 238.839 65.436 239.657 67.5627C240.529 69.6349 242.274 70.6709 244.891 70.6709C245.655 70.6709 247.127 70.4528 249.308 70.0166V63.8001H245.628V54.1483H261.251V82.204H251.599L250.29 79.5866H249.963C249.036 80.35 248.3 80.9226 247.754 81.3043C246.227 82.4494 244.074 83.022 241.293 83.022C229.896 83.022 224.197 74.4062 224.197 57.1747C224.197 48.559 225.697 41.9881 228.696 37.4621C231.695 32.8816 236.739 30.5913 243.828 30.5913C249.499 30.5913 254.38 31.4638 258.469 33.2087L256.261 46.5414Z" fill="#7C3AED"/>
<path d="M221.412 82.204H207.753L206.199 74.1881H196.547L194.993 82.204H181.987L191.312 31.4092H212.088L221.412 82.204ZM204.644 64.6181L201.782 46.4596H201.209L198.346 64.6181H204.644Z" fill="#7C3AED"/>
<path d="M180.361 31.4092L171.772 82.204H150.178L141.017 31.4092H156.477L160.894 64.6999H162.284L165.638 31.4092H180.361Z" fill="#7C3AED"/>
<path d="M119.785 82.204H106.943V55.7024H106.207L101.381 82.204H88.2122L83.6317 55.7024H82.8137V82.204H70.1355L71.8532 31.4092H90.2571L94.8376 58.8924H95.492L99.9089 31.4092H118.067L119.785 82.204Z" fill="#7C3AED"/>
<path d="M65.0399 82.204H37.5568V31.4092H65.8579L65.0399 43.9239H51.5437V51.5309H63.2404V62.3278H51.5437V70.7527H65.8579L65.0399 82.204Z" fill="#7C3AED"/>
<path d="M33.536 43.7603H24.0478V82.204H10.0608V43.7603H0L0.817952 31.4092H34.354L33.536 43.7603Z" fill="#7C3AED"/>
<path d="M412.103 47.1737C415.435 52.8953 415.611 60.0366 413.653 66.2549C416.232 61.5505 417.788 56.269 418.425 50.9447C412.951 46.0229 409.268 38.4158 410.913 30.9885C414.93 33.7765 417.566 38.3524 418.658 43.0807C418.402 38.5956 417.602 33.958 415.842 29.8239C409.179 25.6762 403.542 18.6736 403.258 10.5681C410.571 13.762 415.58 20.7697 417.465 28.3854C419.792 34.1378 420.768 40.3989 420.725 46.5469C422.873 41.1524 426.808 36.0182 432.363 33.9032C431.477 41.0223 426.631 47.3638 420.424 50.8129C419.866 56.1098 418.281 61.3244 416.008 66.0887C420.182 61.6584 426.171 58.2384 432.414 58.7282V58.7933C428.612 65.3643 421.456 69.8187 413.879 70.2845C413.711 70.2999 413.518 70.2536 413.451 70.454C412.104 72.5553 410.463 74.4819 408.787 76.3006C415.445 73.6565 423.126 74.4305 429.462 77.6227C422.529 81.1369 413.896 81.7174 406.893 78.0765C401.116 83.2467 393.499 86.4355 385.715 86.3875V84.4112C395.896 84.5345 405.419 78.6246 411.122 70.3838C412.034 69.531 411.142 68.8614 410.886 67.8938C410.293 66.361 409.838 64.7769 409.51 63.1654C408.459 57.7384 409.089 51.825 411.938 47.011" fill="url(#paint0_linear_5954_265)"/>
<path d="M359.356 47.1669C356.024 52.8885 355.848 60.0298 357.806 66.248C355.226 61.5436 353.671 56.2622 353.034 50.9379C358.507 46.016 362.19 38.4089 360.546 30.9816C356.529 33.7696 353.893 38.3455 352.801 43.0739C353.056 38.5887 353.857 33.9512 355.617 29.8171C362.279 25.6693 367.917 18.6667 368.201 10.5613C360.888 13.7551 355.879 20.7629 353.994 28.3785C351.667 34.131 350.691 40.392 350.734 46.5401C348.584 41.1473 344.649 36.0131 339.094 33.8981C339.981 41.0171 344.826 47.3587 351.033 50.8077C351.591 56.1046 353.176 61.3193 355.449 66.0836C351.273 61.6533 345.284 58.2333 339.041 58.7231V58.7882C342.844 65.3592 350 69.8135 357.576 70.2793C357.744 70.2947 357.937 70.2485 358.004 70.4489C359.351 72.5502 360.992 74.4768 362.668 76.2955C356.01 73.6513 348.329 74.4254 341.993 77.6176C348.926 81.1317 357.559 81.7123 364.563 78.0714C370.339 83.2416 377.957 86.4303 385.741 86.3824C385.741 85.723 385.741 85.0654 385.741 84.4061C375.559 84.5294 366.036 78.6194 360.334 70.3787C359.421 69.5258 360.313 68.8562 360.57 67.8886C361.162 66.3559 361.617 64.7718 361.946 63.1603C362.997 57.7332 362.367 51.8198 359.517 47.0059" fill="url(#paint1_linear_5954_265)"/>
<path d="M395.915 32.2712L390.088 43.9336L372.607 38.1024L384.26 26.4399L395.915 32.2712Z" fill="#805CD8"/>
<path d="M397.372 54.1386L407.571 43.9336L395.915 32.2712L390.088 43.9336V49.7648L397.372 54.1386Z" fill="#5E35B1"/>
<path d="M384.26 55.596L390.088 61.4272L397.392 54.1181L390.088 49.7648L384.26 55.596Z" fill="#805CD8"/>
<path d="M407.571 43.9336L390.088 61.4272V102.244L401.743 90.5815L404.657 67.2575L407.571 43.9336Z" fill="#391E70"/>
<path d="M390.088 61.4272L384.26 55.596L375.52 96.4127L390.088 102.244V61.4272Z" fill="#5E35B1"/>
<path d="M366.779 46.8483L375.52 55.596L366.779 73.0879V46.8483Z" fill="#391E70"/>
<path d="M372.607 38.1024L390.088 43.9336V49.7648L384.26 55.596H375.52L366.779 46.8483L372.607 38.1024Z" fill="#A08AE4"/>
<path d="M366.779 73.0879L375.52 55.596H384.26L375.52 96.4127L366.779 73.0879Z" fill="#805CD8"/>
<path d="M396.133 10.4962C386.808 11.1401 386.286 11.6624 385.643 20.9924C384.999 11.6624 384.477 11.1401 375.153 10.4962C384.477 9.85226 384.999 9.32993 385.643 0C386.286 9.32993 386.808 9.85226 396.133 10.4962Z" fill="#14B8A6"/>
<defs>
<linearGradient id="paint0_linear_5954_265" x1="385.735" y1="0" x2="385.735" y2="102.243" gradientUnits="userSpaceOnUse">
<stop stop-color="#5EEAD4"/>
<stop offset="1" stop-color="#042F2E"/>
</linearGradient>
<linearGradient id="paint1_linear_5954_265" x1="385.728" y1="0.00230933" x2="385.728" y2="102.243" gradientUnits="userSpaceOnUse">
<stop stop-color="#5EEAD4"/>
<stop offset="1" stop-color="#042F2E"/>
</linearGradient>
</defs>
</svg>
